<svg width="46" height="46" viewBox="0 0 46 46" fill="none" xmlns="http://www.w3.org/2000/svg">
<path d="M22.6956 17.2912C21.6268 17.2916 20.5821 17.6089 19.6936 18.203C18.8051 18.7971 18.1127 19.6412 17.704 20.6288C17.2953 21.6164 17.1885 22.7029 17.3973 23.7512C17.6061 24.7994 18.1209 25.7621 18.8768 26.5178C19.6327 27.2734 20.5957 27.7879 21.644 27.9963C22.6923 28.2046 23.7788 28.0975 24.7662 27.6884C25.7536 27.2793 26.5976 26.5866 27.1913 25.6979C27.7851 24.8092 28.102 23.7644 28.102 22.6956C28.1009 21.2622 27.5309 19.8879 26.5172 18.8746C25.5034 17.8612 24.1289 17.2917 22.6956 17.2912ZM35.3311 13.1371C35.056 12.4398 34.6405 11.8066 34.1105 11.2766C33.5805 10.7465 32.9472 10.3311 32.25 10.056C30.1223 9.21602 25.0563 9.40448 22.6956 9.40448C20.3348 9.40448 15.2739 9.20893 13.1401 10.056C12.4429 10.3311 11.8096 10.7465 11.2796 11.2766C10.7496 11.8066 10.3341 12.4398 10.059 13.1371C9.22007 15.2648 9.40752 20.3358 9.40752 22.6946C9.40752 25.0533 9.22007 30.1182 10.0631 32.253C10.3382 32.9503 10.7536 33.5835 11.2837 34.1136C11.8137 34.6436 12.4469 35.059 13.1442 35.3342C15.2719 36.1741 20.3379 35.9856 22.6996 35.9856C25.0614 35.9856 30.1203 36.1812 32.254 35.3342C32.9513 35.059 33.5846 34.6436 34.1146 34.1136C34.6446 33.5835 35.06 32.9503 35.3352 32.253C36.1812 30.1253 35.9867 25.0543 35.9867 22.6956C35.9867 20.3368 36.1812 15.2729 35.3352 13.1381L35.3311 13.1371ZM22.6956 31.0038C21.0524 31.0038 19.4461 30.5165 18.0798 29.6036C16.7135 28.6907 15.6486 27.3931 15.0198 25.875C14.391 24.3569 14.2264 22.6864 14.547 21.0747C14.8676 19.4631 15.6589 17.9827 16.8208 16.8208C17.9827 15.6589 19.4631 14.8676 21.0747 14.547C22.6864 14.2264 24.3569 14.391 25.875 15.0198C27.3931 15.6486 28.6907 16.7135 29.6036 18.0798C30.5165 19.4461 31.0038 21.0524 31.0038 22.6956C31.0051 23.787 30.7911 24.868 30.3741 25.8766C29.957 26.8852 29.3451 27.8016 28.5733 28.5733C27.8016 29.3451 26.8852 29.957 25.8766 30.3741C24.868 30.7911 23.787 31.0051 22.6956 31.0038ZM31.3462 15.9781C30.9626 15.9783 30.5876 15.8647 30.2686 15.6518C29.9495 15.4388 29.7008 15.136 29.5539 14.7817C29.4069 14.4273 29.3684 14.0374 29.4431 13.6611C29.5178 13.2849 29.7024 12.9392 29.9736 12.6679C30.2448 12.3966 30.5903 12.2118 30.9665 12.1369C31.3427 12.062 31.7327 12.1003 32.0871 12.2471C32.4415 12.3938 32.7444 12.6424 32.9576 12.9613C33.1707 13.2803 33.2845 13.6552 33.2845 14.0388C33.2855 14.2936 33.2363 14.546 33.1396 14.7817C33.0429 15.0173 32.9006 15.2316 32.7209 15.4121C32.5412 15.5927 32.3276 15.7359 32.0924 15.8338C31.8572 15.9316 31.605 15.982 31.3503 15.9821L31.3462 15.9781ZM40.5278 0H4.86334C3.5735 0 2.33649 0.512386 1.42444 1.42444C0.512386 2.33649 0 3.5735 0 4.86334L0 40.5278C0 41.8176 0.512386 43.0546 1.42444 43.9667C2.33649 44.8787 3.5735 45.3911 4.86334 45.3911H40.5278C41.8176 45.3911 43.0546 44.8787 43.9667 43.9667C44.8787 43.0546 45.3911 41.8176 45.3911 40.5278V4.86334C45.3911 3.5735 44.8787 2.33649 43.9667 1.42444C43.0546 0.512386 41.8176 0 40.5278 0ZM38.7932 29.3827C38.6625 31.9795 38.0698 34.2804 36.1741 36.1711C34.2784 38.0617 31.9795 38.6666 29.3857 38.7902C26.7098 38.9411 18.6874 38.9411 16.0115 38.7902C13.4147 38.6595 11.1218 38.0657 9.22311 36.1711C7.32439 34.2764 6.72761 31.9744 6.604 29.3827C6.45304 26.7058 6.45304 18.6823 6.604 16.0085C6.73471 13.4117 7.32033 11.1107 9.22311 9.22007C11.1259 7.32945 13.4248 6.73167 16.0115 6.60806C18.6874 6.45709 26.7098 6.45709 29.3857 6.60806C31.9825 6.73876 34.2825 7.33249 36.1741 9.22717C38.0657 11.1218 38.6696 13.4238 38.7932 16.0206C38.9442 18.6874 38.9442 26.7038 38.7932 29.3827Z" fill="black"/>
</svg>
