<svg width="46" height="46" viewBox="0 0 46 46" fill="none" xmlns="http://www.w3.org/2000/svg">
<path d="M22.6956 0C10.1574 0 0 10.1588 0 22.6956C0 35.2323 10.1588 45.3911 22.6956 45.3911C35.2338 45.3911 45.3911 35.2323 45.3911 22.6956C45.3911 10.1588 35.2323 0 22.6956 0ZM33.8428 15.5487L30.1178 33.1019C29.8425 34.3464 29.1016 34.6481 28.0678 34.0624L22.3939 29.8805L19.6573 32.5162C19.3557 32.8178 19.0994 33.074 18.5137 33.074L18.9164 27.2991L29.431 17.7992C29.8893 17.3965 29.33 17.1681 28.7253 17.5708L15.7302 25.7514L10.1295 24.0031C8.91277 23.6195 8.88495 22.7864 10.3858 22.2007L32.2672 13.7623C33.2834 13.3962 34.1707 14.0098 33.8413 15.5472L33.8428 15.5487Z" fill="black"/>
</svg>
