<svg width="46" height="46" viewBox="0 0 46 46" fill="none" xmlns="http://www.w3.org/2000/svg">
<path d="M22.6956 9.19981C15.3296 9.19981 9.34166 15.1878 9.33153 22.5537C9.33153 25.0766 10.0408 27.5386 11.3782 29.6562L11.6923 30.1628L10.3447 35.0869L15.4006 33.7597L15.8869 34.0535C17.9336 35.2693 20.2842 35.9178 22.6854 35.9178H22.6956C30.0514 35.9178 36.2015 29.9298 36.2015 22.5639C36.2015 18.9974 34.6614 15.6437 32.1385 13.1209C29.6056 10.5879 26.262 9.19981 22.6956 9.19981ZM30.5478 28.2884C30.2135 29.2307 28.6126 30.0818 27.8426 30.1932C26.566 30.3857 25.573 30.2844 23.0299 29.1901C19.0075 27.4475 16.3732 23.3947 16.1706 23.1312C15.968 22.8678 14.5292 20.9529 14.5292 18.9771C14.5292 17.0014 15.5627 16.0287 15.9376 15.6235C16.3023 15.2182 16.738 15.1169 17.0115 15.1169C17.275 15.1169 17.5485 15.1169 17.7816 15.127C18.0247 15.1371 18.3591 15.0358 18.6833 15.816C19.0177 16.6164 19.8181 18.5921 19.9194 18.7948C20.0207 18.9974 20.0917 19.2304 19.9498 19.4939C19.1798 21.0339 18.3591 20.9731 18.7745 21.6824C20.3247 24.3471 21.8749 25.2691 24.2356 26.4545C24.6409 26.6572 24.8739 26.6268 25.107 26.3532C25.34 26.0898 26.11 25.1779 26.3735 24.7828C26.6369 24.3775 26.9105 24.4484 27.2752 24.5801C27.64 24.7118 29.6157 25.6845 30.021 25.8871C30.4262 26.0898 30.6897 26.1911 30.791 26.3532C30.8822 26.5457 30.8822 27.3563 30.5478 28.2884ZM40.5278 0H4.86334C2.17837 0 0 2.17837 0 4.86334V40.5278C0 43.2128 2.17837 45.3911 4.86334 45.3911H40.5278C43.2128 45.3911 45.3911 43.2128 45.3911 40.5278V4.86334C45.3911 2.17837 43.2128 0 40.5278 0ZM22.6854 38.623C19.9903 38.623 17.3459 37.9442 15.0054 36.6675L6.48445 38.9067L8.76414 30.5782C7.3558 28.1466 6.61616 25.3805 6.61616 22.5436C6.6263 13.6883 13.8301 6.48445 22.6854 6.48445C26.9814 6.48445 31.0139 8.15622 34.0535 11.1958C37.0829 14.2354 38.9067 18.2679 38.9067 22.5639C38.9067 31.4192 31.5408 38.623 22.6854 38.623Z" fill="black"/>
</svg>
