<svg width="46" height="46" viewBox="0 0 46 46" fill="none" xmlns="http://www.w3.org/2000/svg">
<path d="M40.5278 0H4.86334C3.5735 0 2.33649 0.512386 1.42444 1.42444C0.512386 2.33649 0 3.5735 0 4.86334L0 40.5278C0 41.8176 0.512386 43.0546 1.42444 43.9667C2.33649 44.8787 3.5735 45.3911 4.86334 45.3911H18.7694V29.9592H12.3863V22.6956H18.7694V17.1595C18.7694 10.8625 22.5183 7.38416 28.26 7.38416C31.0098 7.38416 33.8853 7.87455 33.8853 7.87455V14.055H30.717C27.5954 14.055 26.6217 15.9923 26.6217 17.9791V22.6956H33.5905L32.4759 29.9592H26.6217V45.3911H40.5278C41.8176 45.3911 43.0546 44.8787 43.9667 43.9667C44.8787 43.0546 45.3911 41.8176 45.3911 40.5278V4.86334C45.3911 3.5735 44.8787 2.33649 43.9667 1.42444C43.0546 0.512386 41.8176 0 40.5278 0Z" fill="black"/>
</svg>
